<?xml version="1.0" standalone="no"?>
<!DOCTYPE svg PUBLIC "-//W3C//DTD SVG 20010904//EN"
 "http://www.w3.org/TR/2001/REC-SVG-20010904/DTD/svg10.dtd">
<svg version="1.0" xmlns="http://www.w3.org/2000/svg"
 width="172.000000pt" height="168.000000pt" viewBox="0 0 172.000000 168.000000"
 preserveAspectRatio="xMidYMid meet">

<g transform="translate(0.000000,168.000000) scale(0.100000,-0.100000)"
fill="#000000" stroke="none">
<path d="M0 840 l0 -840 860 0 860 0 0 840 0 840 -860 0 -860 0 0 -840z m1070
722 c83 -24 141 -54 210 -107 89 -69 216 -208 248 -272 48 -96 47 -113 -2 -30
-139 232 -364 367 -614 367 -257 0 -502 -173 -582 -411 -19 -56 -21 -81 -18
-215 l3 -151 42 -85 c54 -109 124 -182 219 -227 115 -56 170 -71 253 -71 147
0 244 41 352 149 98 98 114 144 113 312 -1 110 -2 118 -34 177 -85 160 -278
240 -435 182 -69 -26 -116 -71 -159 -149 -33 -61 -33 -120 0 -186 33 -67 142
-124 183 -96 12 8 9 15 -13 42 -43 51 -76 124 -76 169 0 51 37 93 96 109 141
39 292 -52 325 -195 23 -100 -19 -233 -95 -301 -57 -52 -177 -105 -252 -111
-171 -13 -363 117 -429 289 -50 134 -44 278 17 408 44 93 152 203 242 246 118
56 176 68 291 62 188 -11 307 -59 420 -171 201 -199 261 -516 145 -764 -60
-128 -159 -243 -272 -315 -138 -89 -385 -120 -574 -72 -251 64 -464 287 -533
560 -17 65 -23 167 -14 210 8 36 10 29 16 -63 18 -298 222 -552 502 -627 94
-25 237 -30 318 -11 174 41 278 108 372 241 125 175 159 323 120 510 -32 152
-83 224 -229 323 -112 75 -188 96 -327 90 -93 -5 -117 -10 -174 -36 -223 -105
-334 -380 -236 -588 101 -216 372 -288 529 -140 51 47 74 100 73 165 -1 79
-15 117 -58 162 -40 41 -81 54 -68 22 38 -91 43 -157 18 -210 -50 -105 -257
-127 -332 -36 -59 72 -84 132 -89 213 -4 70 -2 79 30 140 41 79 119 146 216
183 92 36 128 40 203 27 94 -17 166 -55 234 -124 127 -128 171 -288 130 -464
-22 -93 -60 -162 -131 -240 -80 -88 -135 -123 -254 -162 -114 -38 -175 -40
-314 -12 -88 19 -108 27 -190 81 -134 89 -215 190 -268 333 -30 83 -30 84 -25
253 3 143 7 180 26 230 47 129 156 257 267 313 74 37 196 79 266 91 76 14 242
5 318 -17z"/>
</g>
</svg>
