<?xml version="1.0" standalone="no"?>
<!DOCTYPE svg PUBLIC "-//W3C//DTD SVG 20010904//EN"
 "http://www.w3.org/TR/2001/REC-SVG-20010904/DTD/svg10.dtd">
<svg version="1.0" xmlns="http://www.w3.org/2000/svg"
 width="718.000000pt" height="184.000000pt" viewBox="0 0 718.000000 184.000000"
 preserveAspectRatio="xMidYMid meet">

<g transform="translate(0.000000,184.000000) scale(0.100000,-0.100000)"
fill="#000000" stroke="none">
<path d="M0 920 l0 -920 3590 0 3590 0 0 920 0 920 -3590 0 -3590 0 0 -920z
m4590 782 c83 -24 141 -54 210 -107 89 -69 216 -208 248 -272 48 -96 47 -113
-2 -30 -139 232 -364 367 -614 367 -257 0 -502 -173 -582 -411 -19 -56 -21
-81 -18 -215 l3 -151 42 -85 c54 -109 124 -182 219 -227 115 -56 170 -71 253
-71 147 0 244 41 352 149 98 98 114 144 113 312 -1 110 -2 118 -34 177 -85
160 -278 240 -435 182 -69 -26 -116 -71 -159 -149 -33 -61 -33 -120 0 -186 33
-67 142 -124 183 -96 12 8 9 15 -13 42 -43 51 -76 124 -76 169 0 51 37 93 96
109 141 39 292 -52 325 -195 23 -100 -19 -233 -95 -301 -57 -52 -177 -105
-252 -111 -171 -13 -363 117 -429 289 -50 134 -44 278 17 408 44 93 152 203
242 246 118 56 176 68 291 62 188 -11 307 -59 420 -171 201 -199 261 -516 145
-764 -60 -128 -159 -243 -272 -315 -138 -89 -385 -120 -574 -72 -251 64 -464
287 -533 560 -17 65 -23 167 -14 210 8 36 10 29 16 -63 18 -298 222 -552 502
-627 94 -25 237 -30 318 -11 174 41 278 108 372 241 125 175 159 323 120 510
-32 152 -83 224 -229 323 -112 75 -188 96 -327 90 -93 -5 -117 -10 -174 -36
-223 -105 -334 -380 -236 -588 101 -216 372 -288 529 -140 51 47 74 100 73
165 -1 79 -15 117 -58 162 -40 41 -81 54 -68 22 38 -91 43 -157 18 -210 -50
-105 -257 -127 -332 -36 -59 72 -84 132 -89 213 -4 70 -2 79 30 140 41 79 119
146 216 183 92 36 128 40 203 27 94 -17 166 -55 234 -124 127 -128 171 -288
130 -464 -22 -93 -60 -162 -131 -240 -80 -88 -135 -123 -254 -162 -114 -38
-175 -40 -314 -12 -88 19 -108 27 -190 81 -134 89 -215 190 -268 333 -30 83
-30 84 -25 253 3 143 7 180 26 230 47 129 156 257 267 313 74 37 196 79 266
91 76 14 242 5 318 -17z m1686 -56 c17 -13 19 -27 19 -121 0 -100 -1 -108 -24
-126 -26 -21 -58 -18 -78 9 -21 25 -17 211 4 234 19 22 52 23 79 4z m-4303
-112 c54 -18 115 -74 142 -129 26 -54 33 -166 11 -184 -38 -32 -96 -6 -96 43
0 45 -24 102 -55 133 -29 29 -40 33 -84 33 -67 0 -106 -21 -131 -70 -19 -37
-20 -58 -20 -420 0 -421 1 -432 62 -470 26 -17 45 -20 91 -17 114 7 148 67
144 257 l-2 115 -73 5 c-76 5 -92 15 -92 57 0 45 22 53 156 53 l125 0 -3 -207
c-3 -203 -4 -209 -30 -259 -50 -95 -122 -138 -233 -138 -79 -1 -145 25 -189
74 -73 81 -71 68 -71 525 l0 410 28 57 c60 123 190 176 320 132z m-1420 -16
c8 -13 65 -274 126 -580 118 -584 118 -588 71 -603 -47 -15 -64 14 -90 150
-20 104 -5 95 -149 95 l-128 0 -18 -101 c-25 -137 -63 -181 -110 -129 -23 26
-29 -11 106 654 59 290 109 514 117 522 21 21 60 17 75 -8z m454 2 c10 -11 97
-203 193 -426 l175 -406 3 408 c2 362 4 410 19 426 21 24 48 23 73 -2 20 -20
20 -33 20 -579 l0 -560 -22 -15 c-32 -22 -54 -20 -76 8 -10 14 -97 206 -193
427 l-174 402 -3 -409 c-2 -362 -4 -410 -19 -426 -21 -24 -48 -23 -73 2 -20
20 -20 33 -20 573 0 484 2 555 16 575 19 27 57 29 81 2z m4332 6 c9 -8 95
-197 191 -419 l175 -405 5 405 c5 386 6 405 24 419 34 25 64 17 85 -23 14 -28
16 -1079 1 -1117 -11 -29 -49 -43 -78 -27 -13 7 -80 149 -198 422 l-179 413
-2 -405 c-3 -398 -3 -404 -24 -422 -27 -21 -47 -22 -71 0 -17 15 -18 46 -18
576 0 507 2 562 17 579 19 22 51 23 72 4z m1442 -1 c94 -32 148 -115 149 -225
0 -79 -17 -110 -60 -110 -37 0 -50 23 -50 87 0 99 -61 160 -149 148 -87 -10
-131 -64 -131 -158 0 -101 28 -137 208 -272 59 -44 124 -102 145 -130 80 -106
100 -275 46 -380 -92 -177 -371 -194 -484 -30 -32 46 -38 64 -43 123 -3 55 -1
71 13 85 37 38 95 8 95 -49 0 -64 38 -126 90 -146 39 -15 125 -11 164 7 55 26
81 77 80 155 -2 120 -38 174 -196 292 -190 142 -232 204 -233 343 0 68 4 89
28 137 44 90 122 136 233 137 28 1 70 -6 95 -14z m-3967 -11 c21 -20 20 -53
-1 -76 -14 -16 -35 -18 -210 -18 l-193 0 0 -245 0 -245 147 0 c122 0 149 -3
165 -17 22 -20 23 -51 1 -75 -14 -16 -33 -18 -165 -18 l-148 0 0 -180 0 -180
194 0 c211 0 226 -4 226 -55 0 -53 -11 -56 -273 -53 l-241 3 -13 25 c-10 19
-13 150 -13 565 0 473 2 543 16 563 15 22 19 22 254 22 204 0 241 -2 254 -16z
m250 0 c14 -14 16 -76 16 -535 l0 -519 194 0 c164 0 197 -3 210 -16 23 -22 20
-71 -3 -84 -12 -6 -110 -10 -250 -10 -195 0 -232 2 -245 16 -14 14 -16 80 -16
579 0 527 1 565 18 574 25 15 58 13 76 -5z m2990 0 c14 -14 16 -79 16 -571 0
-504 -2 -558 -17 -575 -20 -22 -56 -23 -77 -2 -14 14 -16 80 -16 578 0 424 3
565 12 574 17 17 64 15 82 -4z"/>
<path d="M507 1190 c-5 -15 -97 -481 -97 -493 0 -4 47 -7 105 -7 104 0 105 0
100 23 -3 12 -27 128 -54 257 -27 129 -51 228 -54 220z"/>
</g>
</svg>
