<?xml version="1.0" standalone="no"?>
<!DOCTYPE svg PUBLIC "-//W3C//DTD SVG 20010904//EN"
 "http://www.w3.org/TR/2001/REC-SVG-20010904/DTD/svg10.dtd">
<svg version="1.0" xmlns="http://www.w3.org/2000/svg"
 width="840.000000pt" height="859.000000pt" viewBox="0 0 840.000000 859.000000"
 preserveAspectRatio="xMidYMid meet">

<g transform="translate(0.000000,859.000000) scale(0.100000,-0.100000)"
fill="#000000" stroke="none">
<path d="M4215 8398 c-65 -21 -101 -43 -135 -77 -45 -46 -70 -85 -70 -110 0
-11 -4 -23 -10 -26 -14 -8 -13 -88 1 -122 31 -76 42 -96 68 -122 15 -15 49
-41 75 -56 26 -15 44 -31 39 -34 -12 -9 -43 -71 -43 -87 0 -8 -4 -14 -9 -14
-5 0 -12 -13 -16 -30 -4 -16 -10 -30 -15 -30 -4 0 -17 -21 -29 -47 -11 -27
-29 -64 -40 -83 -10 -19 -27 -53 -37 -75 -11 -22 -21 -42 -24 -45 -3 -3 -25
-45 -50 -95 -25 -49 -48 -92 -51 -95 -4 -3 -9 -15 -13 -27 -8 -25 -53 -61
-111 -88 -27 -13 -62 -19 -110 -19 -83 0 -139 24 -213 91 -26 23 -50 42 -53
43 -7 0 -32 21 -133 113 -43 40 -88 78 -99 86 -10 8 -44 38 -74 67 l-54 54 27
55 c24 50 26 64 22 136 -3 44 -10 85 -16 91 -7 7 -12 18 -12 26 0 24 -107 122
-140 129 -17 3 -33 10 -36 14 -7 12 -131 11 -139 0 -3 -5 -19 -12 -36 -16 -39
-9 -123 -93 -149 -150 -31 -67 -27 -146 10 -219 48 -95 114 -143 207 -153 58
-6 57 -6 89 -118 9 -33 20 -69 24 -80 19 -48 70 -217 70 -231 0 -8 4 -22 9
-32 14 -28 41 -116 41 -134 0 -10 5 -18 10 -18 6 0 10 -10 10 -21 0 -22 26
-110 41 -141 5 -9 12 -35 15 -58 4 -22 11 -43 15 -46 5 -3 9 -16 9 -29 0 -13
4 -26 9 -29 5 -4 12 -24 16 -46 4 -22 11 -42 16 -46 5 -3 9 -12 9 -21 0 -20
57 -211 71 -235 5 -10 9 -29 9 -42 0 -14 4 -27 9 -30 5 -4 12 -24 16 -46 4
-22 11 -40 16 -40 5 0 9 -6 9 -13 0 -19 108 -117 130 -117 10 0 22 -4 25 -10
3 -5 28 -12 55 -16 28 -4 50 -10 50 -15 0 -5 316 -9 716 -9 741 0 762 1 836
41 10 5 25 9 33 9 8 0 15 5 15 10 0 6 6 10 13 10 17 0 97 79 97 97 0 7 3 13 8
13 4 0 15 30 26 68 10 37 22 76 26 87 5 11 16 45 26 75 9 30 20 64 25 75 4 11
11 36 15 55 3 19 10 41 14 50 15 31 40 118 40 139 0 11 5 21 10 21 6 0 10 8
10 18 0 17 26 104 40 132 4 9 11 31 14 50 4 19 11 44 15 55 5 11 17 47 26 80
10 33 21 69 25 80 5 11 16 47 25 80 9 33 23 77 31 98 8 20 14 46 14 57 0 11 5
20 10 20 6 0 10 13 10 29 0 17 5 33 10 36 6 3 10 15 10 25 0 11 7 37 15 58 14
34 21 39 69 50 73 17 110 37 156 84 60 60 75 100 75 195 0 52 -5 87 -12 95 -7
6 -13 19 -13 27 0 23 -108 121 -141 128 -16 3 -32 10 -35 14 -3 5 -23 9 -44 9
-21 0 -41 -4 -44 -9 -3 -4 -19 -11 -35 -14 -33 -7 -141 -105 -141 -128 0 -8
-5 -20 -11 -26 -6 -6 -14 -41 -16 -77 -6 -69 12 -141 46 -179 14 -17 10 -24
-72 -103 -48 -46 -90 -84 -93 -84 -3 0 -22 -15 -42 -34 -58 -54 -109 -97 -172
-146 -25 -19 -51 -41 -59 -48 -42 -40 -96 -57 -186 -57 -82 0 -95 3 -145 31
-31 18 -62 44 -70 60 -8 16 -17 31 -20 34 -3 3 -14 24 -25 47 -11 24 -23 43
-27 43 -5 0 -8 5 -8 11 0 18 -191 392 -202 397 -5 2 -8 10 -8 17 0 15 -31 77
-43 86 -8 6 56 49 72 49 20 0 72 71 112 152 12 24 11 125 -1 133 -5 3 -10 15
-10 26 0 42 -81 135 -140 161 -87 39 -122 44 -175 26z"/>
<path d="M3899 5218 c-10 -4 -19 -14 -19 -23 0 -8 -4 -23 -9 -33 -4 -9 -15
-33 -23 -52 -9 -19 -23 -51 -32 -72 -9 -20 -16 -40 -16 -45 0 -5 -9 -27 -19
-49 -11 -22 -23 -52 -26 -67 -4 -15 -11 -30 -16 -33 -5 -3 -9 -13 -9 -22 0 -9
-7 -30 -15 -46 -8 -15 -15 -35 -15 -42 0 -8 -4 -14 -10 -14 -5 0 -10 -7 -10
-16 0 -16 -20 -67 -46 -116 -8 -14 -14 -35 -14 -45 0 -10 -4 -23 -9 -29 -5 -5
-23 -45 -41 -89 -17 -44 -35 -89 -39 -100 -5 -11 -16 -36 -25 -57 -9 -20 -16
-43 -16 -52 0 -9 -4 -16 -10 -16 -5 0 -10 -6 -10 -14 0 -7 -7 -27 -15 -42 -8
-16 -15 -36 -15 -44 0 -9 -4 -20 -9 -25 -4 -6 -23 -46 -40 -90 -45 -111 -46
-115 -65 -158 -9 -21 -16 -44 -16 -52 0 -8 -4 -15 -10 -15 -5 0 -10 -7 -10
-16 0 -14 -19 -64 -40 -104 -4 -9 -11 -30 -15 -48 -3 -18 -11 -32 -16 -32 -5
0 -9 -11 -9 -25 0 -14 -4 -25 -8 -25 -4 0 -16 -26 -27 -57 -10 -32 -22 -62
-25 -68 -3 -5 -29 -66 -56 -135 -27 -69 -52 -126 -56 -128 -5 -2 -8 -13 -8
-25 0 -12 -7 -31 -15 -41 -8 -11 -15 -30 -15 -43 0 -13 -4 -23 -10 -23 -5 0
-10 -7 -10 -15 0 -14 -7 -33 -54 -138 -14 -32 -26 -64 -26 -72 0 -7 -4 -16 -9
-20 -5 -3 -12 -19 -16 -35 -4 -17 -11 -30 -16 -30 -5 0 -9 -10 -9 -23 0 -13
-7 -32 -15 -43 -8 -10 -15 -29 -15 -41 0 -13 -4 -23 -10 -23 -5 0 -10 -7 -10
-16 0 -9 -7 -32 -16 -52 -25 -57 -31 -71 -65 -157 -17 -44 -37 -94 -45 -112
-8 -17 -14 -34 -14 -37 0 -3 -12 -31 -26 -63 -14 -32 -29 -68 -35 -80 -5 -13
-13 -33 -19 -45 -5 -13 -21 -52 -36 -88 -14 -36 -32 -78 -39 -95 -7 -16 -27
-66 -45 -110 -40 -99 -57 -139 -81 -189 -11 -22 -19 -43 -19 -47 0 -8 -73
-171 -89 -199 -5 -9 -12 -30 -16 -48 -3 -18 -11 -32 -16 -32 -5 0 -9 -7 -9
-16 0 -9 -6 -28 -14 -42 -23 -43 -46 -99 -46 -111 0 -6 -4 -11 -10 -11 -5 0
-10 -8 -10 -17 0 -10 -7 -27 -15 -37 -8 -11 -15 -28 -15 -38 0 -10 -4 -18 -10
-18 -5 0 -10 -6 -10 -12 0 -12 -33 -88 -67 -153 -9 -16 -23 -43 -31 -60 -9
-16 -18 -32 -22 -35 -4 -3 -15 -20 -25 -37 -11 -18 -26 -33 -35 -33 -9 0 -21
-5 -26 -10 -6 -6 -35 -15 -65 -21 -64 -12 -288 -31 -298 -25 -3 2 -5 -66 -3
-152 l3 -157 737 0 c405 0 775 -2 822 -5 l85 -5 3 162 2 161 -57 5 c-32 3
-110 11 -173 17 -63 6 -131 15 -150 20 -19 6 -47 10 -61 10 -29 0 -86 26 -109
49 -20 19 -22 222 -2 229 6 2 12 17 12 32 0 16 4 31 9 35 6 3 13 26 17 50 3
25 10 47 14 50 5 3 11 23 15 45 4 22 11 42 16 46 5 3 9 14 9 25 0 10 4 27 9
37 5 9 17 40 26 67 9 28 23 64 31 82 8 17 14 37 14 45 0 8 4 18 8 23 5 6 15
26 22 45 20 54 50 123 60 142 6 10 10 27 10 38 0 11 4 20 9 20 5 0 12 16 16
36 3 20 13 43 20 50 11 12 171 14 926 14 857 0 913 -1 925 -17 7 -10 14 -25
14 -33 0 -8 7 -28 15 -44 8 -15 15 -35 15 -42 0 -8 4 -22 10 -32 11 -20 32
-72 50 -122 7 -19 19 -48 26 -65 7 -16 31 -82 54 -145 23 -63 48 -128 55 -145
7 -16 19 -48 26 -70 7 -22 16 -44 20 -50 4 -5 10 -27 14 -47 4 -21 11 -38 16
-38 5 0 9 -8 9 -18 0 -10 11 -51 25 -92 39 -120 30 -184 -33 -209 -43 -17
-144 -30 -320 -41 -90 -6 -168 -13 -173 -16 -5 -3 -9 -77 -9 -166 l0 -160 303
8 c392 11 1257 11 1655 0 l312 -8 0 165 0 164 -61 7 c-34 3 -81 6 -105 6 -70
0 -239 43 -271 70 -10 8 -30 31 -45 50 -31 41 -118 209 -118 227 0 7 -4 13
-10 13 -5 0 -10 4 -10 9 0 6 -18 49 -41 97 -22 49 -52 113 -65 144 -14 30 -32
67 -40 82 -8 14 -14 33 -14 41 0 9 -4 17 -8 19 -4 2 -23 41 -42 88 -19 47 -38
89 -42 95 -4 5 -8 17 -8 27 0 10 -4 18 -10 18 -5 0 -10 7 -10 16 0 16 -6 31
-54 136 -14 32 -28 69 -32 83 -3 14 -10 28 -15 31 -5 3 -9 14 -9 25 0 10 -4
19 -10 19 -5 0 -10 6 -10 14 0 14 -19 61 -93 229 -9 21 -17 44 -17 52 0 8 -3
15 -8 15 -4 0 -16 24 -26 53 -10 28 -29 77 -43 107 -48 109 -53 121 -53 135 0
8 -4 15 -9 15 -5 0 -12 12 -15 26 -7 28 -32 87 -100 237 -14 32 -26 62 -26 67
0 6 -4 18 -10 28 -5 9 -16 35 -25 57 -9 22 -23 53 -31 68 -8 16 -14 35 -14 43
0 8 -4 14 -9 14 -5 0 -12 18 -16 40 -4 22 -10 40 -14 40 -4 0 -13 17 -20 38
-17 49 -39 101 -57 134 -8 14 -14 33 -14 42 0 9 -4 16 -10 16 -5 0 -10 5 -10
12 0 17 -64 172 -72 176 -5 2 -8 13 -8 25 0 12 -7 31 -15 41 -8 11 -15 28 -15
38 0 10 -4 18 -10 18 -5 0 -10 7 -10 15 0 8 -6 29 -14 47 -8 18 -21 49 -30 70
-9 20 -16 41 -16 47 0 6 -4 11 -10 11 -5 0 -10 10 -10 23 0 12 -7 31 -15 41
-8 11 -15 28 -15 38 0 10 -4 18 -10 18 -5 0 -10 7 -10 15 0 14 -34 97 -66 158
-8 16 -14 37 -14 48 0 10 -4 19 -10 19 -5 0 -12 16 -16 35 -3 19 -10 35 -15
35 -5 0 -9 7 -9 15 0 18 -32 89 -42 93 -5 2 -8 14 -8 26 0 12 -7 31 -15 42 -8
10 -15 29 -15 42 0 12 -4 22 -10 22 -5 0 -10 5 -10 11 0 6 -7 27 -16 47 -39
88 -44 101 -44 111 0 6 -4 11 -10 11 -5 0 -10 9 -10 21 0 11 -6 33 -14 47 -13
26 -18 36 -50 115 -9 20 -23 52 -31 71 -8 19 -15 39 -15 45 0 6 -4 11 -10 11
-5 0 -10 10 -10 23 0 12 -7 31 -15 41 -8 11 -15 30 -15 43 0 13 -4 23 -10 23
-5 0 -10 5 -10 11 0 11 -20 60 -48 117 -19 37 11 33 -300 36 -117 0 -222 -2
-233 -6z m-18 -1309 c3 -13 19 -51 33 -84 15 -33 31 -69 35 -80 5 -11 13 -31
19 -45 6 -14 20 -48 31 -76 11 -28 29 -73 41 -100 45 -102 50 -115 50 -129 0
-7 3 -15 8 -17 4 -1 20 -37 36 -78 38 -101 55 -140 72 -173 8 -16 14 -35 14
-43 0 -8 5 -14 10 -14 6 0 10 -7 10 -16 0 -9 7 -32 16 -52 9 -21 20 -46 24
-57 14 -33 41 -99 50 -120 5 -11 18 -42 30 -70 12 -27 25 -60 31 -72 5 -13 13
-33 18 -45 6 -13 24 -59 42 -103 17 -44 36 -84 40 -90 5 -5 9 -15 9 -22 0 -7
11 -36 25 -65 13 -29 38 -89 55 -133 17 -44 36 -84 41 -89 5 -6 9 -13 9 -17 0
-12 -272 -20 -725 -24 -469 -3 -802 9 -787 29 5 6 24 52 42 101 18 50 37 94
42 100 4 5 8 17 8 27 0 10 4 18 9 18 5 0 12 18 16 40 4 22 11 40 16 40 5 0 9
6 9 14 0 7 7 27 15 42 8 16 15 36 15 44 0 9 4 20 9 25 5 6 23 46 41 90 17 44
35 89 39 100 5 11 16 36 25 57 9 20 16 43 16 52 0 9 5 16 10 16 6 0 10 9 10
19 0 11 4 22 9 26 5 3 13 20 17 37 3 18 10 39 15 48 13 24 59 130 59 136 0 3
7 22 16 42 9 21 22 52 30 70 8 18 14 39 14 47 0 8 5 15 10 15 6 0 10 7 10 15
0 8 7 31 16 52 9 21 20 47 25 58 4 11 14 36 23 55 8 19 29 71 46 115 17 44 35
90 40 103 10 22 16 36 45 107 9 22 21 48 26 57 5 10 9 25 9 34 0 24 23 11 31
-17z"/>
</g>
</svg>
